HIERARCHY
ROOT Hips
{
	OFFSET 0.000000 0.000000 0.000000 
	CHANNELS 6 Xposition Yposition Zposition Zrotation Yrotation Xrotation
	JOINT LeftUpLeg
	{
		OFFSET 1.363060 -1.794630 0.839290 
		CHANNELS 3 Zrotation Yrotation Xrotation
		JOINT LeftLeg
		{
			OFFSET 2.448110 -6.726130 0.000000 
			CHANNELS 3 Zrotation Yrotation Xrotation
			JOINT LeftFoot
			{
				OFFSET 2.562200 -7.039590 0.000000 
				CHANNELS 3 Zrotation Yrotation Xrotation
				JOINT LeftToeBase
				{
					OFFSET 0.157640 -0.433110 2.322550 
					CHANNELS 3 Zrotation Yrotation Xrotation
					End Site
					{
						OFFSET 0.000000 0.000000 0.000000 
					}
				}
			}
		}
	}
	JOINT RightUpLeg
	{
		OFFSET -1.305520 -1.794630 0.839290 
		CHANNELS 3 Zrotation Yrotation Xrotation
		JOINT RightLeg
		{
			OFFSET -2.542530 -6.985550 0.000000 
			CHANNELS 3 Zrotation Yrotation Xrotation
			JOINT RightFoot
			{
				OFFSET -2.568260 -7.056230 0.000000 
				CHANNELS 3 Zrotation Yrotation Xrotation
				JOINT RightToeBase
				{
					OFFSET -0.164730 -0.452590 2.363150 
					CHANNELS 3 Zrotation Yrotation Xrotation
					End Site
					{
						OFFSET 0.000000 0.000000 0.000000 
					}
				}
			}
		}
	}
	JOINT Spine
	{
		OFFSET 0.028270 2.035590 -0.193380 
		CHANNELS 3 Zrotation Yrotation Xrotation
		JOINT Spine1
		{
			OFFSET 0.056720 2.048850 -0.042750 
			CHANNELS 3 Zrotation Yrotation Xrotation
			JOINT Neck1
			{
				OFFSET -0.054170 1.746240 0.172020 
				CHANNELS 3 Zrotation Yrotation Xrotation
				JOINT Head
				{
					OFFSET 0.104070 1.761360 -0.123970 
					CHANNELS 3 Zrotation Yrotation Xrotation
					End Site
					{
						OFFSET 0.000000 0.000000 0.000000 
					}
				}
			}
			JOINT LeftArm
			{
				OFFSET 3.362410 1.200890 -0.311210 
				CHANNELS 3 Zrotation Yrotation Xrotation
				JOINT LeftForeArm
				{
					OFFSET 4.983000 -0.000000 -0.000000 
					CHANNELS 3 Zrotation Yrotation Xrotation
					JOINT LeftHand
					{
						OFFSET 3.483560 -0.000000 -0.000000 
						CHANNELS 3 Zrotation Yrotation Xrotation
						JOINT LeftHandIndex1
						{
							OFFSET 0.715260 -0.000000 -0.000000 
							CHANNELS 3 Zrotation Yrotation Xrotation
							End Site
							{
								OFFSET 0.000000 0.000000 0.000000 
							}
						}
					}
				}
			}
			JOINT RightArm
			{
				OFFSET -3.136600 1.374050 -0.404650 
				CHANNELS 3 Zrotation Yrotation Xrotation
				JOINT RightForeArm
				{
					OFFSET -5.241900 -0.000000 -0.000000 
					CHANNELS 3 Zrotation Yrotation Xrotation
					JOINT RightHand
					{
						OFFSET -3.444170 -0.000000 -0.000000 
						CHANNELS 3 Zrotation Yrotation Xrotation
						JOINT RightHandIndex1
						{
							OFFSET -0.622530 -0.000000 -0.000000 
							CHANNELS 3 Zrotation Yrotation Xrotation
							End Site
							{
								OFFSET 0.000000 0.000000 0.000000 
							}
						}
					}
				}
			}
		}
	}
}
MOTION
Frames: 18
Frame Time: 0.041667
-1.411568 24.530699 4.024042 -160.468484 82.027484 -147.331396 -24.232686 -10.250397 -50.953845 2.726532 28.183876 58.773748 0.884462 -15.064693 -11.963868 1.634700 -8.059800 -22.895700 45.618830 -3.264768 -22.786541 9.477242 -13.378726 25.479808 -1.326142 -0.709199 -21.366068 -0.842100 5.853500 -16.360000 2.844719 3.334316 -2.283214 0.217528 0.708772 -16.410253 -0.408707 -6.984627 27.972595 -2.356900 -1.618900 20.776100 -74.658107 23.933312 12.236512 24.126348 -34.875664 -8.626870 0.349606 2.276836 9.349903 -7.125000 0.000000 0.000000 56.550188 -10.216021 17.794789 -39.469715 47.487840 -15.613018 0.765738 -2.354248 -16.589206 7.125000 0.000000 0.000000 
-1.309962 24.607686 4.029765 -162.316909 82.229185 -149.620507 -25.417980 -9.996595 -50.491048 0.677410 27.283661 54.413657 0.887603 -11.608723 -11.903000 1.481500 -7.690400 -21.777500 45.370249 -2.932724 -21.065783 9.799308 -12.744458 24.285754 -1.364284 -2.660144 -21.469130 -1.853800 8.554700 -24.412100 2.737873 3.463238 -2.287760 -0.111002 0.742447 -16.344360 -0.280266 -7.405728 28.111339 -2.212800 -1.770600 20.801900 -73.904667 25.014074 11.279090 22.916143 -33.656635 -8.099417 0.346222 2.295750 9.334073 -7.125000 0.000000 0.000000 57.154384 -10.105357 17.510137 -40.342720 48.095705 -16.227980 0.723382 -2.350640 -16.996215 7.125000 0.000000 0.000000 
-1.207062 24.676143 4.036136 -163.380509 82.424809 -151.131687 -26.553721 -9.459591 -49.668668 -1.350226 26.113701 49.942654 0.869885 -7.952713 -12.109271 1.317300 -7.269400 -20.515900 45.292397 -2.343504 -19.377259 10.072272 -12.186791 23.254205 -1.498771 -2.892484 -22.543155 -1.389400 7.457700 -21.078700 2.631403 3.583358 -2.290658 -0.482668 0.762249 -16.258293 -0.194503 -7.795605 28.232242 -2.113400 -1.900100 20.795900 -73.149222 26.003112 10.370851 22.021504 -32.681799 -7.697265 0.333335 2.308500 8.810286 -7.125000 0.000000 0.000000 57.849562 -9.972442 17.329665 -41.137706 48.644353 -16.775624 0.740235 -2.349034 -17.150733 7.125000 0.000000 0.000000 
-1.102541 24.732506 4.045422 -163.664917 82.591398 -151.882692 -27.596808 -8.691438 -48.491346 -3.318765 24.671398 45.360965 0.779546 -4.416550 -12.344365 1.214100 -6.989600 -19.684600 45.416710 -1.503794 -17.706064 10.357185 -11.735196 22.413671 -1.656586 -3.308899 -23.671533 -1.114600 6.706900 -18.850000 2.527053 3.677243 -2.284802 -0.897300 0.762005 -16.109395 -0.188368 -8.087935 28.479361 -2.098400 -1.950700 20.930700 -72.393198 26.771431 9.336610 21.004545 -31.562028 -7.250446 0.373140 2.302424 8.913111 -7.125000 0.000000 0.000000 58.636265 -9.765346 17.240138 -41.845241 49.137895 -17.261271 0.773360 -2.350469 -17.111996 7.125000 0.000000 0.000000 
-0.989706 24.771701 4.055031 -164.374376 82.844225 -152.972488 -28.724159 -7.803698 -47.002727 -5.214400 22.975831 40.655549 0.677475 -1.362665 -12.954462 1.219900 -7.005700 -19.732200 45.485028 -0.622134 -16.181055 10.604731 -11.356770 21.741136 -1.809813 -3.757202 -24.700486 -0.935400 6.160700 -17.251500 2.511451 3.636936 -2.266716 -0.852496 0.776412 -15.853476 -0.373118 -8.111216 28.656687 -2.240000 -1.901500 20.955400 -72.078411 27.787596 8.121245 20.107189 -30.563212 -6.865847 0.459205 2.284464 9.523276 -7.125000 0.000000 0.000000 59.142229 -9.589488 17.584646 -42.774806 49.720595 -17.863742 0.786897 -2.340633 -17.123877 7.125000 0.000000 0.000000 
-0.871257 24.793512 4.065505 -164.661176 83.053349 -153.581587 -29.603642 -7.080902 -45.223131 -6.908408 21.146390 36.032998 0.599359 1.181910 -14.184435 1.220600 -7.007700 -19.738300 45.668078 0.174320 -14.865567 10.788776 -11.092991 21.315315 -1.975271 -3.814305 -25.753691 -0.681300 5.277700 -14.702200 2.502937 3.555313 -2.265898 -0.754425 0.771248 -15.620160 -0.335852 -8.152850 28.821950 -2.168800 -1.911400 21.034600 -71.793209 28.827659 7.379890 19.836996 -30.241361 -6.778336 0.421218 2.304971 9.809867 -7.125000 0.000000 0.000000 59.571927 -9.588575 18.235984 -43.663556 50.257599 -18.424213 0.800607 -2.330132 -17.060126 7.125000 0.000000 0.000000 
-0.752807 24.797507 4.079974 -163.729298 83.169868 -153.007709 -30.088483 -6.444522 -43.330988 -8.238501 19.363201 31.915609 0.482634 3.541944 -15.679539 1.016700 -6.415000 -17.993300 46.145267 1.038884 -13.630119 10.936275 -10.968181 21.170429 -2.188155 -3.413509 -27.006872 -0.426000 4.189000 -11.609000 2.520240 3.495664 -2.268288 -0.667567 0.760506 -15.423892 -0.354378 -8.145411 28.945577 -2.170100 -1.888900 21.094100 -71.511025 29.572230 6.448614 19.298234 -29.599002 -6.541257 0.439095 2.304318 10.639436 -7.125000 0.000000 0.000000 59.918041 -9.612219 18.989650 -44.335930 50.657173 -18.833301 0.813055 -2.322433 -16.695295 7.125000 0.000000 0.000000 
-0.634034 24.780555 4.093903 -163.137337 83.320782 -152.806164 -30.582026 -5.694693 -41.512104 -9.174776 17.758495 28.542904 0.436260 4.848124 -17.320848 0.839400 -5.844100 -16.332800 46.611003 1.865813 -12.494398 11.018116 -10.965244 21.329361 -2.391186 -3.062202 -28.054894 -0.358900 3.848900 -10.651900 2.520158 3.428942 -2.269586 -0.573949 0.751411 -15.246747 -0.276695 -8.071226 29.078592 -2.080800 -1.852700 21.177500 -71.228116 30.392385 5.973435 19.069654 -29.296323 -6.445617 0.438033 2.306394 10.809295 -7.125000 0.000000 0.000000 60.159010 -9.820541 19.834893 -45.245343 51.160322 -19.405581 0.828010 -2.311211 -16.248610 7.125000 0.000000 0.000000 
-0.513965 24.738445 4.106104 -163.063226 83.499004 -153.131661 -31.001661 -5.079009 -39.712119 -9.792528 16.386034 25.857632 0.564167 4.720823 -19.161295 0.747600 -5.523100 -15.406600 47.028570 2.679055 -11.441313 11.062425 -11.047036 21.689508 -2.631954 -3.080886 -29.231009 -0.489800 4.487400 -12.452000 2.505405 3.309316 -2.269788 -0.443442 0.728670 -15.073042 -0.148265 -8.013608 29.154404 -1.939500 -1.834500 21.141500 -71.030888 31.304301 5.626503 19.174162 -29.333683 -6.476256 0.421446 2.308329 10.705326 -7.125000 0.000000 0.000000 60.277237 -10.183013 20.837989 -46.257004 51.690504 -20.045684 0.837419 -2.297747 -15.725312 7.125000 0.000000 0.000000 
-0.394112 24.669556 4.122408 -162.619067 83.674137 -153.077938 -31.138687 -4.646973 -37.927493 -10.195072 15.194934 23.644832 0.811072 3.833948 -21.183004 0.690400 -5.312000 -14.800700 47.628773 3.773583 -10.361771 11.125350 -11.181402 22.122673 -2.918528 -3.155852 -30.547407 -0.545200 4.730500 -13.141300 2.505320 3.218731 -2.266704 -0.237003 0.729568 -14.885319 -0.057411 -8.015419 29.239894 -1.828500 -1.839100 21.103300 -70.878718 31.991446 5.219278 19.108985 -29.208258 -6.440269 0.446452 2.297213 10.751468 -7.125000 0.000000 0.000000 60.354675 -10.691746 21.747784 -47.228967 52.172972 -20.666223 0.835081 -2.285823 -15.010611 7.125000 0.000000 0.000000 
-0.279441 24.576373 4.140548 -161.179806 83.774599 -152.003659 -31.092036 -4.207612 -36.265318 -10.515842 14.102325 21.684915 0.893807 4.216345 -23.042919 0.727100 -5.448300 -15.191700 48.469565 4.840166 -9.507982 11.125554 -11.493332 22.902769 -3.222869 -3.316495 -31.812049 -0.583600 4.891500 -13.599400 2.550013 3.140072 -2.283331 0.073958 0.735913 -14.777232 -0.008427 -7.918144 29.443551 -1.752200 -1.796200 21.255300 -70.825625 32.508837 4.802116 18.881635 -28.943821 -6.354595 0.478466 2.290756 10.789987 -7.125000 0.000000 0.000000 60.349478 -11.323589 22.597865 -48.206700 52.624435 -21.298991 0.828875 -2.275070 -14.275195 7.125000 0.000000 0.000000 
-0.170170 24.460515 4.159336 -158.377938 83.764254 -149.528752 -30.744349 -3.852515 -34.712894 -10.670294 13.099582 19.937709 1.205878 2.680349 -24.613312 0.711500 -5.390700 -15.026500 49.467596 5.721452 -9.190887 10.932388 -12.130688 24.373511 -3.562333 -2.785368 -33.099540 -0.604000 4.974800 -13.836800 2.652857 2.989721 -2.303384 0.526440 0.711350 -14.683461 -0.014277 -7.690388 29.658095 -1.734000 -1.693200 21.423200 -70.941101 33.013633 4.299535 18.706395 -28.760173 -6.303284 0.489953 2.296998 10.744775 -7.125000 0.000000 0.000000 60.146321 -11.831977 23.582376 -48.987534 52.963055 -21.790308 0.829785 -2.263281 -13.657899 7.125000 0.000000 0.000000 
-0.062518 24.327165 4.179959 -154.808432 83.727527 -146.205665 -30.025540 -3.841793 -33.148387 -10.704704 12.131457 18.206870 1.746001 -0.762065 -25.900663 0.782200 -5.646500 -15.762100 50.470169 6.669156 -9.384585 10.548731 -13.050645 26.447804 -3.952934 -1.722112 -34.486836 -0.592200 4.926800 -13.700000 2.769265 2.837299 -2.313690 1.019158 0.692009 -14.554212 -0.100453 -7.435435 29.593647 -1.817100 -1.586400 21.217700 -71.088516 33.415385 3.748061 18.514481 -28.581296 -6.258478 0.517050 2.296573 10.968161 -7.125000 0.000000 0.000000 59.860979 -12.350513 24.490165 -49.735238 53.271566 -22.264426 0.848729 -2.249022 -13.276390 7.125000 0.000000 0.000000 
0.041895 24.186364 4.197667 -150.225461 83.574375 -141.736168 -28.899623 -4.461489 -31.510433 -11.038358 11.245659 16.663375 1.304754 4.150074 -28.068260 0.626700 -5.065500 -14.095500 51.457135 7.502555 -9.976653 10.059721 -14.076550 28.735535 -4.281731 -0.669307 -35.529930 -0.579100 4.872800 -13.546100 2.901547 2.705316 -2.348077 1.527333 0.669718 -14.477216 -0.033378 -7.173405 29.762250 -1.746400 -1.488400 21.387600 -71.436868 33.779342 3.069942 18.329036 -28.395729 -6.211687 0.568218 2.290410 11.246708 -7.125000 0.000000 0.000000 59.563248 -13.006999 25.215053 -50.492415 53.565193 -22.766876 0.856523 -2.237790 -13.131659 7.125000 0.000000 0.000000 
0.141556 24.047507 4.211920 -142.940248 83.042455 -134.425475 -27.190242 -5.153513 -30.133477 -11.139709 10.513007 15.461711 1.156700 6.177484 -29.783755 0.590500 -4.919800 -13.679900 52.716581 7.905737 -10.839585 9.531486 -15.104609 31.009853 -4.533147 0.735509 -36.328916 -0.589900 4.917500 -13.673300 3.076467 2.630190 -2.417659 1.866731 0.633459 -14.409421 -0.266316 -6.817461 30.018077 -1.979000 -1.288800 21.992900 -71.930613 33.985484 2.252167 18.150270 -28.215218 -6.169415 0.624832 2.285314 10.974806 -7.125000 0.000000 0.000000 59.287201 -13.749683 25.748340 -51.192834 53.804482 -23.222379 0.858306 -2.227288 -13.126461 7.125000 0.000000 0.000000 
0.238950 23.916749 4.222070 -134.928316 82.296863 -126.223258 -25.293299 -5.784949 -29.029103 -11.115279 9.899364 14.500910 1.237049 6.680603 -31.432980 0.627700 -5.069700 -14.107500 54.027477 7.912654 -11.759105 9.002949 -16.030681 33.106177 -4.710447 2.421363 -36.979409 -0.566000 4.818600 -13.392000 3.238578 2.617696 -2.493636 2.067878 0.614737 -14.359551 -0.402482 -6.483764 30.190515 -2.132400 -1.105600 22.213600 -72.425634 34.010383 1.354259 17.874075 -27.954428 -6.096633 0.667243 2.287937 10.578749 -7.125000 0.000000 0.000000 59.020796 -14.494496 26.068143 -51.803063 53.996978 -23.610328 0.884341 -2.212186 -13.344964 7.125000 0.000000 0.000000 
0.335373 23.794628 4.227793 -128.843086 81.782566 -119.800024 -23.816832 -6.381253 -28.092895 -11.066045 9.301595 13.453178 1.725037 5.338286 -33.504243 0.728000 -5.451700 -15.201400 54.875404 7.803997 -12.596397 8.534740 -16.747890 34.804813 -4.727205 3.878453 -37.065254 -0.463700 4.367800 -12.113900 3.354331 2.587289 -2.574871 2.321729 0.620141 -14.330418 -0.368918 -6.199015 30.255157 -2.135900 -0.976000 22.316800 -72.950764 33.993844 0.471137 17.486746 -27.583456 -5.977248 0.692710 2.303081 10.509798 -7.125000 0.000000 0.000000 58.782342 -15.194522 26.204675 -52.283626 54.142151 -23.937709 0.914906 -2.200075 -13.705712 7.125000 0.000000 0.000000 
0.432767 23.678770 4.234055 -124.443376 81.496638 -115.052324 -23.078445 -6.529833 -27.405789 -11.106285 8.763841 12.540506 1.838104 5.758388 -35.126102 0.654300 -5.173900 -14.405200 55.327481 7.703129 -13.357803 8.084142 -17.357365 36.330938 -4.632464 4.858143 -36.665999 -0.437900 4.246100 -11.770000 3.443076 2.492201 -2.634385 2.664173 0.624041 -14.256305 -0.269413 -5.894241 30.321705 -2.085100 -0.850600 22.492300 -73.455526 33.962990 -0.059039 17.212417 -27.347084 -5.895422 0.701618 2.323060 10.454248 -7.125000 0.000000 0.000000 58.529250 -15.826665 26.241932 -52.528768 54.202411 -24.128750 0.925248 -2.195654 -14.048458 7.125000 0.000000 0.000000 
